<?xml version="1.0" standalone="yes"?>

<svg version="1.1" viewBox="0.0 0.0 338.0314960629921 333.3569553805774" fill="none" stroke="none" stroke-linecap="square" stroke-miterlimit="10" xmlns="http://www.w3.org/2000/svg" xmlns:xlink="http://www.w3.org/1999/xlink"><clipPath id="p.0"><path d="m0 0l338.0315 0l0 333.35696l-338.0315 0l0 -333.35696z" clip-rule="nonzero"></path></clipPath><g clip-path="url(#p.0)"><path fill="#000000" fill-opacity="0.0" d="m0 0l338.0315 0l0 333.35696l-338.0315 0z" fill-rule="evenodd"></path><path fill="#000000" d="m6.3648295 54.326546l0 0c0 -30.003723 24.322823 -54.326546 54.326546 -54.326546l217.29965 0l0 0c14.408295 0 28.22647 5.7236733 38.414673 15.911877c10.188202 10.188204 15.911896 24.006374 15.911896 38.41467l0 217.29968c0 30.003723 -24.322845 54.326538 -54.32657 54.326538l-217.29965 0c-30.003723 0 -54.326546 -24.322815 -54.326546 -54.326538z" fill-rule="evenodd"></path><path stroke="#000000" stroke-width="1.0" stroke-linejoin="round" stroke-linecap="butt" d="m6.3648295 54.326546l0 0c0 -30.003723 24.322823 -54.326546 54.326546 -54.326546l217.29965 0l0 0c14.408295 0 28.22647 5.7236733 38.414673 15.911877c10.188202 10.188204 15.911896 24.006374 15.911896 38.41467l0 217.29968c0 30.003723 -24.322845 54.326538 -54.32657 54.326538l-217.29965 0c-30.003723 0 -54.326546 -24.322815 -54.326546 -54.326538z" fill-rule="evenodd"></path><path fill="#000000" fill-opacity="0.0" d="m0 8.0l246.3937 0l0 237.6063l-246.3937 0z" fill-rule="evenodd"></path><path fill="#ff981c" d="m96.375 71.14061q26.84375 0 45.671875 14.171875q18.828125 14.15625 23.734375 41.0l-15.828125 0q-1.921875 -16.484375 -17.171875 -29.046875q-15.25 -12.578125 -36.40625 -12.578125q-29.125 0 -45.90625 20.484375q-16.78125 20.46875 -16.78125 52.65625q0 31.75 16.65625 52.453125q16.671875 20.703125 46.03125 20.703125q25.59375 0 41.578125 -16.03125q15.984375 -16.046875 15.984375 -44.609375l0 -0.453125l-56.65625 0l0 -13.421875l70.65625 0l0 84.53125l-11.484375 0l-2.0625 -30.265625l-0.453125 0q-7.953125 16.609375 -22.921875 25.203125q-14.953125 8.59375 -34.640625 8.59375q-35.953125 0 -57.234375 -24.40625q-21.265625 -24.40625 -21.265625 -62.296875q0 -38.109375 21.328125 -62.390625q21.328125 -24.296875 57.171875 -24.296875z" fill-rule="nonzero"></path><path fill="#000000" fill-opacity="0.0" d="m153.04199 8.0l226.26773 0l0 232.8189l-226.26773 0z" fill-rule="evenodd"></path><path fill="#ffffff" d="m257.6045 74.67186q25.484375 0 38.6875 10.078125q13.203125 10.0625 13.203125 30.984375q0 12.859375 -5.921875 21.28125q-5.921875 8.421875 -16.609375 13.53125q15.125 4.5625 22.796875 15.375q7.6875 10.796875 7.6875 26.84375q0 22.984375 -16.609375 35.609375q-16.609375 12.625 -41.0625 12.625l-81.6875 0l0 -166.32812l79.515625 0zm-5.234375 67.34375q9.796875 0 15.765625 -5.0q5.96875 -5.0 5.96875 -14.796875q0 -9.78125 -6.140625 -14.4375q-6.140625 -4.671875 -18.09375 -4.671875l-35.15625 0l0 38.90625l37.65625 0zm2.390625 70.546875q12.171875 0 19.109375 -5.34375q6.953125 -5.359375 6.953125 -16.5q0 -11.71875 -6.546875 -17.75q-6.546875 -6.03125 -18.9375 -6.03125l-40.625 0l0 45.625l40.046875 0z" fill-rule="nonzero"></path></g></svg>

